HIERARCHY
ROOT Hips
{
  OFFSET 0.000 65.212 0.000
  CHANNELS 6 Xposition Yposition Zposition Zrotation Xrotation Yrotation
  JOINT LeftUpLeg
  {
    OFFSET 8.511 1.985 1.450
    CHANNELS 6 Xposition Yposition Zposition Zrotation Xrotation Yrotation
    JOINT LeftLeg
    {
      OFFSET 0.000 -31.708 0.000
      CHANNELS 6 Xposition Yposition Zposition Zrotation Xrotation Yrotation
      JOINT LeftFoot
      {
        OFFSET 0.000 -35.489 0.000
        CHANNELS 6 Xposition Yposition Zposition Zrotation Xrotation Yrotation
        End Site
        {
          OFFSET 0.000 0.000 12.100
        }
      }
    }
  }
  JOINT RightUpLeg
  {
    OFFSET -8.511 1.985 1.450
    CHANNELS 6 Xposition Yposition Zposition Zrotation Xrotation Yrotation
    JOINT RightLeg
    {
      OFFSET 0.000 -31.708 0.000
      CHANNELS 6 Xposition Yposition Zposition Zrotation Xrotation Yrotation
      JOINT RightFoot
      {
        OFFSET 0.000 -35.489 0.000
        CHANNELS 6 Xposition Yposition Zposition Zrotation Xrotation Yrotation
        End Site
        {
          OFFSET 0.000 0.000 12.100
        }
      }
    }
  }
  JOINT Spine
  {
    OFFSET 0.000 34.300 0.000
    CHANNELS 6 Xposition Yposition Zposition Zrotation Xrotation Yrotation
    JOINT Spine1
    {
      OFFSET 0.000 25.000 0.000
      CHANNELS 6 Xposition Yposition Zposition Zrotation Xrotation Yrotation
      JOINT LeftShoulder
      {
        OFFSET 1.800 -0.600 0.200
        CHANNELS 6 Xposition Yposition Zposition Zrotation Xrotation Yrotation
        JOINT LeftArm
        {
          OFFSET 14.120 0.000 0.000
          CHANNELS 6 Xposition Yposition Zposition Zrotation Xrotation Yrotation
          JOINT LeftForeArm
          {
            OFFSET 26.666 0.000 0.000
            CHANNELS 6 Xposition Yposition Zposition Zrotation Xrotation Yrotation
            JOINT LeftHand
            {
              OFFSET 21.978 0.000 0.000
              CHANNELS 6 Xposition Yposition Zposition Zrotation Xrotation Yrotation
              JOINT LeftHandThumb1
              {
                OFFSET 4.877 -1.044 3.608
                CHANNELS 6 Xposition Yposition Zposition Zrotation Xrotation Yrotation
                JOINT LeftHandThumb2
                {
                  OFFSET 2.665 -0.000 0.000
                  CHANNELS 6 Xposition Yposition Zposition Zrotation Xrotation Yrotation
                  JOINT LeftHandThumb3
                  {
                    OFFSET 2.543 0.000 0.000
                    CHANNELS 6 Xposition Yposition Zposition Zrotation Xrotation Yrotation
                    End Site
                    {
                      OFFSET 2.667 0.000 0.000
                    }
                  }
                }
              }
              JOINT LeftHandIndex1
              {
                OFFSET 9.232 -0.301 2.144
                CHANNELS 6 Xposition Yposition Zposition Zrotation Xrotation Yrotation
                JOINT LeftHandIndex2
                {
                  OFFSET 4.225 0.000 0.000
                  CHANNELS 6 Xposition Yposition Zposition Zrotation Xrotation Yrotation
                  JOINT LeftHandIndex3
                  {
                    OFFSET 2.654 0.000 0.000
                    CHANNELS 6 Xposition Yposition Zposition Zrotation Xrotation Yrotation
                    End Site
                    {
                      OFFSET 1.958 -0.000 -0.000
                    }
                  }
                }
              }
              JOINT LeftHandMiddle1
              {
                OFFSET 8.920 0.000 0.000
                CHANNELS 6 Xposition Yposition Zposition Zrotation Xrotation Yrotation
                JOINT LeftHandMiddle2
                {
                  OFFSET 4.863 0.000 -0.000
                  CHANNELS 6 Xposition Yposition Zposition Zrotation Xrotation Yrotation
                  JOINT LeftHandMiddle3
                  {
                    OFFSET 2.765 -0.000 0.000
                    CHANNELS 6 Xposition Yposition Zposition Zrotation Xrotation Yrotation
                    End Site
                    {
                      OFFSET 2.006 -0.000 -0.000
                    }
                  }
                }
              }
              JOINT LeftHandRing1
              {
                OFFSET 8.689 -0.126 -2.087
                CHANNELS 6 Xposition Yposition Zposition Zrotation Xrotation Yrotation
                JOINT LeftHandRing2
                {
                  OFFSET 4.538 -0.000 0.000
                  CHANNELS 6 Xposition Yposition Zposition Zrotation Xrotation Yrotation
                  JOINT LeftHandRing3
                  {
                    OFFSET 2.305 0.000 0.000
                    CHANNELS 6 Xposition Yposition Zposition Zrotation Xrotation Yrotation
                    End Site
                    {
                      OFFSET 1.923 0.000 -0.000
                    }
                  }
                }
              }
              JOINT LeftHandPinky1
              {
                OFFSET 8.391 -0.817 -3.758
                CHANNELS 6 Xposition Yposition Zposition Zrotation Xrotation Yrotation
                JOINT LeftHandPinky2
                {
                  OFFSET 3.044 0.000 0.000
                  CHANNELS 6 Xposition Yposition Zposition Zrotation Xrotation Yrotation
                  JOINT LeftHandPinky3
                  {
                    OFFSET 1.975 -0.000 0.000
                    CHANNELS 6 Xposition Yposition Zposition Zrotation Xrotation Yrotation
                    End Site
                    {
                      OFFSET 1.667 0.000 -0.000
                    }
                  }
                }
              }
            }
          }
        }
      }
      JOINT RightShoulder
      {
        OFFSET -1.800 -0.600 0.200
        CHANNELS 6 Xposition Yposition Zposition Zrotation Xrotation Yrotation
        JOINT RightArm
        {
          OFFSET -14.120 0.000 0.000
          CHANNELS 6 Xposition Yposition Zposition Zrotation Xrotation Yrotation
          JOINT RightForeArm
          {
            OFFSET -26.666 0.000 0.000
            CHANNELS 6 Xposition Yposition Zposition Zrotation Xrotation Yrotation
            JOINT RightHand
            {
              OFFSET -21.978 0.000 0.000
              CHANNELS 6 Xposition Yposition Zposition Zrotation Xrotation Yrotation
              JOINT RightHandThumb1
              {
                OFFSET -4.877 -1.044 3.608
                CHANNELS 6 Xposition Yposition Zposition Zrotation Xrotation Yrotation
                JOINT RightHandThumb2
                {
                  OFFSET -2.665 0.000 -0.000
                  CHANNELS 6 Xposition Yposition Zposition Zrotation Xrotation Yrotation
                  JOINT RightHandThumb3
                  {
                    OFFSET -2.543 -0.000 0.000
                    CHANNELS 6 Xposition Yposition Zposition Zrotation Xrotation Yrotation
                    End Site
                    {
                      OFFSET -2.667 0.000 0.000
                    }
                  }
                }
              }
              JOINT RightHandIndex1
              {
                OFFSET -9.232 -0.301 2.144
                CHANNELS 6 Xposition Yposition Zposition Zrotation Xrotation Yrotation
                JOINT RightHandIndex2
                {
                  OFFSET -4.225 0.000 -0.000
                  CHANNELS 6 Xposition Yposition Zposition Zrotation Xrotation Yrotation
                  JOINT RightHandIndex3
                  {
                    OFFSET -2.654 0.000 -0.000
                    CHANNELS 6 Xposition Yposition Zposition Zrotation Xrotation Yrotation
                    End Site
                    {
                      OFFSET -1.958 -0.000 0.000
                    }
                  }
                }
              }
              JOINT RightHandMiddle1
              {
                OFFSET -8.920 0.000 0.000
                CHANNELS 6 Xposition Yposition Zposition Zrotation Xrotation Yrotation
                JOINT RightHandMiddle2
                {
                  OFFSET -4.863 0.000 -0.000
                  CHANNELS 6 Xposition Yposition Zposition Zrotation Xrotation Yrotation
                  JOINT RightHandMiddle3
                  {
                    OFFSET -2.765 0.000 0.000
                    CHANNELS 6 Xposition Yposition Zposition Zrotation Xrotation Yrotation
                    End Site
                    {
                      OFFSET -2.006 0.000 0.000
                    }
                  }
                }
              }
              JOINT RightHandRing1
              {
                OFFSET -8.689 -0.126 -2.087
                CHANNELS 6 Xposition Yposition Zposition Zrotation Xrotation Yrotation
                JOINT RightHandRing2
                {
                  OFFSET -4.538 0.000 -0.000
                  CHANNELS 6 Xposition Yposition Zposition Zrotation Xrotation Yrotation
                  JOINT RightHandRing3
                  {
                    OFFSET -2.305 0.000 0.000
                    CHANNELS 6 Xposition Yposition Zposition Zrotation Xrotation Yrotation
                    End Site
                    {
                      OFFSET -1.923 0.000 -0.000
                    }
                  }
                }
              }
              JOINT RightHandPinky1
              {
                OFFSET -8.391 -0.817 -3.758
                CHANNELS 6 Xposition Yposition Zposition Zrotation Xrotation Yrotation
                JOINT RightHandPinky2
                {
                  OFFSET -3.044 0.000 0.000
                  CHANNELS 6 Xposition Yposition Zposition Zrotation Xrotation Yrotation
                  JOINT RightHandPinky3
                  {
                    OFFSET -1.975 0.000 0.000
                    CHANNELS 6 Xposition Yposition Zposition Zrotation Xrotation Yrotation
                    End Site
                    {
                      OFFSET -1.667 0.000 0.000
                    }
                  }
                }
              }
            }
          }
        }
      }
      JOINT Neck
      {
        OFFSET 0.000 0.800 0.000
        CHANNELS 6 Xposition Yposition Zposition Zrotation Xrotation Yrotation
        JOINT Head
        {
          OFFSET 0.000 6.926 0.000
          CHANNELS 6 Xposition Yposition Zposition Zrotation Xrotation Yrotation
          End Site
          {
            OFFSET 0.000 12.653 0.000
          }
        }
      }
    }
  }
}
MOTION
Frames:	4
Frame Time:	0.033333
-103.31102 66.01869 -215.76607 2.18678 18.89542 0.35230 5.20969 2.40339 2.56485 27.18120 -52.24727 24.75644 0.06294 -30.75448 -0.08891 3.41522 59.32956 -15.06911 0.31367 -35.41424 0.04741 0.23127 15.55356 -0.34914 -2.24681 0.64493 2.65658 -23.15173 -2.65235 -35.54237 0.10828 -33.09364 -0.04192 26.86043 -7.00014 4.25589 0.05161 -29.79774 -0.25994 0.93233 6.27964 -14.18653 -0.05614 30.36417 -0.00396 -0.58391 2.45999 -27.11170 0.08047 22.56497 -0.06949 -2.10581 1.71499 -31.80518 1.16267 -0.20463 -0.71658 -1.64926 0.05616 38.29382 10.52462 0.24121 -0.10794 -60.14883 14.33930 -46.28283 25.65483 0.05070 -0.34780 16.53778 -1.65093 -44.41132 22.33979 0.00030 -0.31151 9.21751 2.61420 -31.12410 4.87700 -1.04399 3.60799 -24.66569 4.20855 -9.07947 2.66500 -0.00001 0.00000 -0.00000 0.00000 10.00000 2.54297 0.00000 0.00000 0.00000 -0.00000 14.99999 9.23200 -0.30100 2.14400 -20.00000 -0.00000 0.00000 4.22499 0.00000 0.00000 -25.00000 0.00000 0.00001 2.65400 0.00001 0.00000 -29.90550 2.49762 -4.33287 8.92000 0.00002 0.00000 -20.00000 -0.00000 0.00000 4.86300 0.00002 -0.00000 -25.00000 0.00000 0.00001 2.76501 -0.00001 0.00001 -29.90550 2.49761 -4.33287 8.68899 -0.12597 -2.08701 -20.00000 -0.00000 0.00000 4.53802 -0.00002 0.00001 -25.00000 0.00000 0.00001 2.30498 0.00000 0.00000 -29.90550 2.49761 -4.33287 8.39099 -0.81699 -3.75801 -20.00000 -0.00000 0.00000 3.04401 0.00001 0.00000 -25.00000 0.00000 0.00001 1.97501 -0.00001 0.00002 -29.90550 2.49762 -4.33287 -0.62810 -1.34366 -0.74810 37.52168 -32.42720 -33.83525 -14.89965 -1.11935 -0.78026 162.38374 14.32197 -5.21594 -25.73289 0.87656 -0.01543 0.21507 -6.55839 -11.60982 -20.71395 -0.90538 0.40241 20.41489 -16.32297 97.45360 -4.87701 -1.04401 3.60799 37.43813 21.26626 8.20657 -2.66500 0.00000 -0.00002 -0.00001 -0.00000 -5.00000 -2.54301 -0.00002 0.00002 0.00001 0.00000 -60.00000 -9.23200 -0.30101 2.14400 80.00001 -0.00001 0.00001 -4.22499 0.00002 -0.00005 90.00000 -0.00000 0.00001 -2.65400 0.00000 -0.00002 70.00000 -0.00000 0.00001 -8.92000 0.00000 0.00000 80.00000 -0.00001 0.00001 -4.86302 0.00000 -0.00002 90.00000 -0.00000 0.00001 -2.76499 0.00000 0.00000 69.99999 -0.00000 0.00001 -8.68899 -0.12600 -2.08697 80.00000 -0.00001 0.00001 -4.53800 0.00001 -0.00002 90.00000 -0.00000 0.00001 -2.30499 0.00000 0.00000 69.99999 -0.00000 0.00001 -8.39100 -0.81700 -3.75800 80.00001 -0.00001 0.00001 -3.04401 0.00000 0.00000 90.00000 -0.00000 0.00001 -1.97500 0.00001 0.00000 70.00000 -0.00000 0.00001 0.00527 0.74235 -0.00277 -0.00525 0.01176 0.00487 0.18411 6.63932 -0.01884 6.68288 13.60989 56.61729 
-98.09222 65.80180 -219.30112 4.73412 25.47394 -4.29536 6.17043 2.81719 2.56665 25.78517 -62.59063 28.34600 -0.72058 -32.15564 0.20151 5.10215 60.74531 -10.19520 0.25985 -35.10342 0.08088 -0.12657 14.62146 0.55791 -2.83052 0.70859 2.14372 -32.80595 -15.99760 -37.89263 -0.11725 -32.84507 0.16927 29.54839 1.11776 0.10011 0.02501 -29.14942 -0.19980 4.50908 14.80530 -16.47422 -0.35317 30.00454 -0.07685 -0.13821 1.79214 -21.67069 0.16974 22.42616 0.00042 -1.21957 1.56190 -25.94727 1.34935 -0.34996 -0.58663 -5.83449 -2.46794 32.69914 10.10845 0.36610 -0.21966 -55.81412 11.87846 -48.46542 24.72960 -0.01008 -0.17244 15.50076 -1.05242 -43.51457 21.90598 0.03926 -0.34051 8.25304 3.03261 -28.69304 4.87700 -1.04399 3.60799 -24.66569 4.20855 -9.07947 2.66500 -0.00001 0.00000 -0.00000 0.00000 10.00000 2.54297 0.00000 0.00000 0.00000 -0.00000 14.99999 9.23200 -0.30100 2.14400 -20.00000 -0.00000 0.00000 4.22499 0.00000 0.00000 -25.00000 0.00000 0.00001 2.65400 0.00001 0.00000 -29.90550 2.49762 -4.33287 8.92000 0.00002 0.00000 -20.00000 -0.00000 0.00000 4.86300 0.00002 -0.00000 -25.00000 0.00000 0.00001 2.76501 -0.00001 0.00001 -29.90550 2.49761 -4.33287 8.68899 -0.12597 -2.08701 -20.00000 -0.00000 0.00000 4.53802 -0.00002 0.00001 -25.00000 0.00000 0.00001 2.30498 0.00000 0.00000 -29.90550 2.49761 -4.33287 8.39099 -0.81699 -3.75801 -20.00000 -0.00000 0.00000 3.04401 0.00001 0.00000 -25.00000 0.00000 0.00001 1.97501 -0.00001 0.00002 -29.90550 2.49762 -4.33287 -0.38851 -1.56634 -0.66292 46.27496 -36.67301 -30.78283 -15.54919 -1.49538 -0.90132 170.48398 24.22479 -2.19522 -26.25512 0.37695 0.39412 5.16991 -7.52772 -11.05965 -19.97512 -0.93589 -0.24181 4.32821 -30.11810 92.95382 -4.87701 -1.04401 3.60799 37.43813 21.26626 8.20657 -2.66500 0.00000 -0.00002 -0.00001 -0.00000 -5.00000 -2.54301 -0.00002 0.00002 0.00001 0.00000 -60.00000 -9.23200 -0.30101 2.14400 80.00001 -0.00001 0.00001 -4.22499 0.00002 -0.00005 90.00000 -0.00000 0.00001 -2.65400 0.00000 -0.00002 70.00000 -0.00000 0.00001 -8.92000 0.00000 0.00000 80.00000 -0.00001 0.00001 -4.86302 0.00000 -0.00002 90.00000 -0.00000 0.00001 -2.76499 0.00000 0.00000 69.99999 -0.00000 0.00001 -8.68899 -0.12600 -2.08697 80.00000 -0.00001 0.00001 -4.53800 0.00001 -0.00002 90.00000 -0.00000 0.00001 -2.30499 0.00000 0.00000 69.99999 -0.00000 0.00001 -8.39100 -0.81700 -3.75800 80.00001 -0.00001 0.00001 -3.04401 0.00000 0.00000 90.00000 -0.00000 0.00001 -1.97500 0.00001 0.00000 70.00000 -0.00000 0.00001 0.02241 0.74143 -0.00283 -0.00544 0.01176 0.01059 0.38293 6.61543 -0.00595 7.82217 11.91477 47.70795 
-95.57966 65.94691 -222.60518 4.45834 31.62245 -5.26048 7.48671 3.37629 2.62050 31.14134 -71.95853 32.85247 -0.94974 -33.82866 0.34134 2.13583 61.69501 -3.85794 0.17137 -35.15620 0.09514 -0.56241 14.92112 1.82052 -4.11977 0.80091 1.96952 -33.54720 -28.04528 -38.97455 0.06680 -33.37312 0.27376 23.55568 3.69151 -4.40579 0.06542 -28.55308 -0.19426 5.25518 18.03721 -16.33671 -0.41436 29.91172 0.00080 0.47388 2.40890 -15.24942 0.50455 21.83487 -0.09486 -0.26534 1.60623 -18.23534 1.36195 -0.30297 -0.33589 -7.01343 -2.51007 23.39703 9.90205 0.37967 -0.23712 -52.57011 11.30398 -51.54435 24.39203 -0.00414 -0.14668 14.95979 -0.49938 -43.61459 23.93689 0.04068 -0.71575 7.55628 2.86836 -26.36245 4.87700 -1.04399 3.60799 -24.66569 4.20855 -9.07947 2.66500 -0.00001 0.00000 -0.00000 0.00000 10.00000 2.54297 0.00000 0.00000 0.00000 -0.00000 14.99999 9.23200 -0.30100 2.14400 -20.00000 -0.00000 0.00000 4.22499 0.00000 0.00000 -25.00000 0.00000 0.00001 2.65400 0.00001 0.00000 -29.90550 2.49762 -4.33287 8.92000 0.00002 0.00000 -20.00000 -0.00000 0.00000 4.86300 0.00002 -0.00000 -25.00000 0.00000 0.00001 2.76501 -0.00001 0.00001 -29.90550 2.49761 -4.33287 8.68899 -0.12597 -2.08701 -20.00000 -0.00000 0.00000 4.53802 -0.00002 0.00001 -25.00000 0.00000 0.00001 2.30498 0.00000 0.00000 -29.90550 2.49761 -4.33287 8.39099 -0.81699 -3.75801 -20.00000 -0.00000 0.00000 3.04401 0.00001 0.00000 -25.00000 0.00000 0.00001 1.97501 -0.00001 0.00002 -29.90550 2.49762 -4.33287 -0.58304 -1.43154 -0.23466 46.78756 -25.97737 -21.11096 -13.70727 -3.35237 0.89517 169.03650 51.22461 23.51638 -26.91316 -0.12987 -0.08541 24.64658 6.43020 -7.33381 -18.88390 -1.51165 -4.37642 -1.54940 -10.27773 95.13390 -4.87701 -1.04401 3.60799 37.43813 21.26626 8.20657 -2.66500 0.00000 -0.00002 -0.00001 -0.00000 -5.00000 -2.54301 -0.00002 0.00002 0.00001 0.00000 -60.00000 -9.23200 -0.30101 2.14400 80.00001 -0.00001 0.00001 -4.22499 0.00002 -0.00005 90.00000 -0.00000 0.00001 -2.65400 0.00000 -0.00002 70.00000 -0.00000 0.00001 -8.92000 0.00000 0.00000 80.00000 -0.00001 0.00001 -4.86302 0.00000 -0.00002 90.00000 -0.00000 0.00001 -2.76499 0.00000 0.00000 69.99999 -0.00000 0.00001 -8.68899 -0.12600 -2.08697 80.00000 -0.00001 0.00001 -4.53800 0.00001 -0.00002 90.00000 -0.00000 0.00001 -2.30499 0.00000 0.00000 69.99999 -0.00000 0.00001 -8.39100 -0.81700 -3.75800 80.00001 -0.00001 0.00001 -3.04401 0.00000 0.00000 90.00000 -0.00000 0.00001 -1.97500 0.00001 0.00000 70.00000 -0.00000 0.00001 0.04099 0.74200 -0.00287 -0.00564 0.01176 0.02484 0.53852 6.59997 -0.03196 11.61542 8.15461 34.28573 
-93.50733 65.87141 -225.32678 3.81634 37.63242 -3.87656 8.36161 3.75138 2.29692 60.39418 -81.08183 59.11863 -0.93726 -35.17349 0.54400 -10.43082 67.16810 8.77306 0.05418 -35.41295 0.05035 -0.63498 15.01942 2.73620 -5.17030 0.92339 1.87329 -36.02493 -37.33763 -42.63097 0.15254 -33.95711 0.30534 18.43588 4.31915 -8.04564 0.05322 -28.07222 -0.21840 8.97704 23.33338 -19.90641 -0.30547 29.72611 -0.02586 0.61143 2.63679 -11.15281 0.80107 21.90094 0.05962 0.27564 1.69669 -13.10030 1.36756 -0.31865 -0.15864 -10.18062 -2.88146 15.32435 10.09936 0.25929 -0.32942 -47.61105 9.90658 -53.53515 24.34125 0.00634 -0.16213 15.74494 -0.89798 -42.01538 23.09115 0.06092 -0.61541 7.39956 2.58959 -24.26823 4.87700 -1.04399 3.60799 -24.66569 4.20855 -9.07947 2.66500 -0.00001 0.00000 -0.00000 0.00000 10.00000 2.54297 0.00000 0.00000 0.00000 -0.00000 14.99999 9.23200 -0.30100 2.14400 -20.00000 -0.00000 0.00000 4.22499 0.00000 0.00000 -25.00000 0.00000 0.00001 2.65400 0.00001 0.00000 -29.90550 2.49762 -4.33287 8.92000 0.00002 0.00000 -20.00000 -0.00000 0.00000 4.86300 0.00002 -0.00000 -25.00000 0.00000 0.00001 2.76501 -0.00001 0.00001 -29.90550 2.49761 -4.33287 8.68899 -0.12597 -2.08701 -20.00000 -0.00000 0.00000 4.53802 -0.00002 0.00001 -25.00000 0.00000 0.00001 2.30498 0.00000 0.00000 -29.90550 2.49761 -4.33287 8.39099 -0.81699 -3.75801 -20.00000 -0.00000 0.00000 3.04401 0.00001 0.00000 -25.00000 0.00000 0.00001 1.97501 -0.00001 0.00002 -29.90550 2.49762 -4.33287 -0.76511 -1.45006 0.02296 48.08036 -17.02123 -14.00045 -14.35705 -2.92829 2.54329 148.54361 67.04102 53.93251 -27.56779 -0.32856 0.02219 38.27623 17.13569 -11.51691 -19.90678 -3.10172 -4.91401 -9.93257 11.65008 83.75677 -4.87701 -1.04401 3.60799 37.43813 21.26626 8.20657 -2.66500 0.00000 -0.00002 -0.00001 -0.00000 -5.00000 -2.54301 -0.00002 0.00002 0.00001 0.00000 -60.00000 -9.23200 -0.30101 2.14400 80.00001 -0.00001 0.00001 -4.22499 0.00002 -0.00005 90.00000 -0.00000 0.00001 -2.65400 0.00000 -0.00002 70.00000 -0.00000 0.00001 -8.92000 0.00000 0.00000 80.00000 -0.00001 0.00001 -4.86302 0.00000 -0.00002 90.00000 -0.00000 0.00001 -2.76499 0.00000 0.00000 69.99999 -0.00000 0.00001 -8.68899 -0.12600 -2.08697 80.00000 -0.00001 0.00001 -4.53800 0.00001 -0.00002 90.00000 -0.00000 0.00001 -2.30499 0.00000 0.00000 69.99999 -0.00000 0.00001 -8.39100 -0.81700 -3.75800 80.00001 -0.00001 0.00001 -3.04401 0.00000 0.00000 90.00000 -0.00000 0.00001 -1.97500 0.00001 0.00000 70.00000 -0.00000 0.00001 0.05306 0.75018 -0.00290 -0.00584 0.01112 0.03210 0.64314 6.69635 0.04668 14.99930 3.19205 25.99088 
